<svg width="24" height="25" viewBox="0 0 24 25" fill="none" xmlns="http://www.w3.org/2000/svg">
<g clip-path="url(#clip0_4066_37971)">
<mask id="mask0_4066_37971" style="mask-type:luminance" maskUnits="userSpaceOnUse" x="0" y="0" width="24" height="25">
<path d="M0 0.0921631H24V24.0922H0V0.0921631Z" fill="white"/>
</mask>
<g mask="url(#mask0_4066_37971)">
<path fill-rule="evenodd" clip-rule="evenodd" d="M24 12.0922C24 5.46516 18.627 0.0921631 12 0.0921631C5.373 0.0921631 0 5.46516 0 12.0922C0 18.7199 5.373 24.0922 12 24.0922C18.627 24.0922 24 18.7199 24 12.0922ZM9.79725 5.33391C9.7215 5.48316 9.7215 5.67816 9.7215 6.06891V9.14916C9.7215 9.24666 9.7215 9.29541 9.73425 9.34116C9.74503 9.38098 9.76281 9.41857 9.78675 9.45216C9.81375 9.48966 9.852 9.52116 9.92775 9.58266L10.737 10.2397C10.8277 10.3139 10.8735 10.3507 10.89 10.3957C10.905 10.4347 10.905 10.4782 10.89 10.5172C10.8735 10.5614 10.8277 10.5982 10.737 10.6724L9.927 11.3302C9.852 11.3917 9.8145 11.4224 9.78675 11.4599C9.76271 11.4937 9.74493 11.5316 9.73425 11.5717C9.7215 11.6167 9.7215 11.6654 9.7215 11.7629V18.1154C9.7215 18.5062 9.7215 18.7019 9.79725 18.8504C9.86416 18.9819 9.97103 19.0888 10.1025 19.1557C10.251 19.2314 10.4467 19.2314 10.8375 19.2314H13.1625C13.5532 19.2314 13.7483 19.2314 13.8975 19.1557C14.029 19.0888 14.1358 18.9819 14.2028 18.8504C14.2785 18.7019 14.2785 18.5062 14.2785 18.1154V15.0352C14.2785 14.9377 14.2785 14.8889 14.2665 14.8439C14.2556 14.8038 14.2375 14.7659 14.2133 14.7322C14.1719 14.6829 14.1246 14.6391 14.0723 14.6017L13.263 13.9447C13.1723 13.8704 13.1265 13.8337 13.11 13.7887C13.0956 13.7497 13.0956 13.7069 13.11 13.6679C13.1265 13.6229 13.1723 13.5854 13.263 13.5119L14.073 12.8542C14.148 12.7934 14.1855 12.7627 14.2133 12.7244C14.2372 12.6906 14.255 12.6527 14.2657 12.6127C14.2785 12.5677 14.2785 12.5189 14.2785 12.4214V6.06966C14.2785 5.67891 14.2785 5.48391 14.2028 5.33466C14.1358 5.20319 14.029 5.09632 13.8975 5.02941C13.7483 4.95366 13.5532 4.95366 13.1625 4.95366H10.8375C10.4467 4.95366 10.2518 4.95366 10.1025 5.02941C9.97103 5.09632 9.86416 5.20244 9.79725 5.33391Z" fill="black"/>
</g>
</g>
<defs>
<clipPath id="clip0_4066_37971">
<rect width="24" height="24" fill="white" transform="translate(0 0.0921631)"/>
</clipPath>
</defs>
</svg>
